<svg xmlns="http://www.w3.org/2000/svg" viewBox="0 0 2470 803" width="2470" height="803" fill="none" role="img" aria-label="solev">
 <g transform="translate(-22 -58)">
  <path d="M285 858.000L285 858.000Q165 858.000 96 808.500Q27 759.000 22 669.000L22 669.000L182 669.000Q186 694.000 213 712.000Q240 730.000 289 730.000L289 730.000Q324 730.000 349.500 719.500Q375 709.000 375 685.000L375 685.000Q375 664.000 355 650.500Q335 637.000 282 632.000L282 632.000L244 628.000Q138 617.000 88 570.000Q38 523.000 38 452.000L38 452.000Q38 391.000 68 351.500Q98 312.000 151 292.000Q204 272.000 272 272.000L272 272.000Q383 272.000 451 320.500Q519 369.000 523 460.000L523 460.000L363 460.000Q359 435.000 336 417.500Q313 400.000 270 400.000L270 400.000Q239 400.000 219.500 411.000Q200 422.000 200 442.000L200 442.000Q200 463.000 218.500 473.000Q237 483.000 278 488.000L278 488.000L316 492.000Q422 503.000 479.500 550.500Q537 598.000 537 675.000L537 675.000Q537 732.000 506.500 773.000Q476 814.000 419.500 836.000Q363 858.000 285 858.000Z" fill="#F2E8D4"></path>
  <path d="M1373 840.000L1191 840.000L1191 58.900L1373 58.900L1373 840.000ZM1373 200.140L1129 200.140L1129 58.900L1373 58.900L1373 200.140Z" fill="#F2E8D4"></path>
  <path d="M1741.016 857.000L1741.016 857.000Q1674.016 857.000 1625.016 833.500Q1576.016 810.000 1545.016 770.500Q1514.016 731.000 1498.516 681.500Q1483.016 632.000 1483.016 581.000L1483.016 581.000L1483.016 571.000Q1483.016 519.000 1498.516 471.000Q1514.016 423.000 1545.516 383.500Q1577.016 344.000 1624.516 321.500Q1672.016 299.000 1735.016 299.000L1735.016 299.000Q1815.016 299.000 1869.516 334.500Q1924.016 370.000 1952.016 427.000Q1980.016 484.000 1980.016 547.000L1980.016 547.000L1980.016 583.000L1508.016 583.000L1508.016 539.000L1945.016 539.000L1929.016 559.000Q1929.016 498.000 1906.516 450.000Q1884.016 402.000 1840.516 374.500Q1797.016 347.000 1735.016 347.000L1735.016 347.000Q1668.016 347.000 1623.016 378.000Q1578.016 409.000 1555.516 461.000Q1533.016 513.000 1533.016 576.000L1533.016 576.000Q1533.016 639.000 1555.516 691.500Q1578.016 744.000 1624.016 776.500Q1670.016 809.000 1741.016 809.000L1741.016 809.000Q1817.016 809.000 1863.516 774.000Q1910.016 739.000 1920.016 690.000L1920.016 690.000L1972.016 690.000Q1961.016 739.000 1930.016 777.000Q1899.016 815.000 1851.516 836.000Q1804.016 857.000 1741.016 857.000Z" fill="#F2E8D4"></path>
  <path d="M2272.023 840.000L2219.023 840.000L2028.023 315.000L2084.023 315.000L2272.023 840.000ZM2308.023 840.000L2235.023 840.000L2235.023 795.000L2308.023 795.000L2308.023 840.000ZM2322.023 840.000L2271.023 840.000L2439.023 315.000L2491.023 315.000L2322.023 840.000Z" fill="#F2E8D4"></path>
  <circle cx="848.49" cy="557.50" r="179.70" fill="#E26A14"></circle>
  <circle cx="848.49" cy="557.50" r="236.61" fill="none" stroke="#F2E8D4" stroke-width="131.78"></circle>
 </g>
</svg>